<svg width="225" height="73" xmlns="http://www.w3.org/2000/svg" xml:space="preserve" version="1.1">

 <g>
  <title>Layer 1</title>
  <g transform="rotate(90 110.05 36.1)" id="svg_1">
   <path id="svg_2" fill="#141414" d="m87.5,144.2l0,-5.7c0,-5.3 4,-9.3 28.3,-9.3c24.3,0 28.3,4.1 28.3,9.3l0,5.7l-56.6,0zm51.9,-5.7c0,-2 -1.6,-3.6 -23.5,-3.6c-21.9,0 -23.5,1.6 -23.5,3.6l0,0.4l47,0l0,-0.4z"/>
   <path id="svg_3" fill="#141414" d="m87.5,126.4l0,-12.1l4.9,0l0,6.9l20.7,0l0,-5.7l4.9,0l0,5.7l21.5,0l0,-6.9l4.9,0l0,12.1l-56.9,0zm-4.4,-2.8l-8.1,-5.7l0,-2.4l5.7,0l3.2,6.5l0,1.6l-0.8,0z"/>
   <path id="svg_4" fill="#141414" d="m87.5,112.6l0,-5.3c0,-4.9 4,-8.9 17,-8.9s17,4 17,8.9l22.7,0l0,5.3l-56.7,0zm29.2,-5.6c0,-1.2 -1.6,-2.8 -12.1,-2.8s-12.1,1.6 -12.1,2.8l0,0.4l24.3,0l0,-0.4l-0.1,0z"/>
   <path id="svg_5" fill="#141414" d="m87.5,96l0,-5.3l51.8,0l0,-6.8l4.9,0l0,12.1l-56.7,0z"/>
   <path id="svg_6" fill="#141414" d="m87.5,80.6l0,-8.9l56.7,-3.6l0,5.3l-12.5,0.5l0,4.5l12.6,0.6l0,5.3l-56.8,-3.7zm39.3,-6.4l-32.8,1.6l0,0.8l32.8,1.6l0,-4z"/>
   <path id="svg_7" fill="#141414" d="m121.6,52.7c0,0 3.2,-1.2 9.3,-1.2c10.9,0 14.2,3.2 14.2,6.9c0,4.9 -3.6,8.5 -29.2,8.5c-25.5,0 -29.2,-3.6 -29.2,-8.5c0,-3.6 3.2,-6.9 14.2,-6.9c6.1,0 9.3,1.2 9.3,1.2l0,4.9c0,0 -4.5,-0.8 -9.7,-0.8c-8.5,0 -9.3,0.8 -9.3,1.6c0,1.2 1.6,2.8 24.7,2.8c23.1,0 24.7,-1.6 24.7,-2.8c0,-0.8 -0.8,-1.6 -9.3,-1.6c-5.3,0 -9.7,0.8 -9.7,0.8l0,-4.9z"/>
   <path id="svg_8" fill="#141414" d="m87.5,48.6l0,-12.1l4.9,0l0,6.9l20.7,0l0,-5.7l4.9,0l0,5.7l21.5,0l0,-6.9l4.9,0l0,12.1l-56.9,0zm-4.4,-2.8l-8.1,-5.7l0,-2.4l5.7,0l3.2,6.5l0,1.6l-0.8,0z"/>
   <path id="svg_9" fill="#141414" d="m87.5,26.8l0,-7.3l22.3,-2.8l0,-0.4l-22.3,-2.9l0,-7.3l56.7,0l0,5.7l-48.6,-2l0,0.8l26.7,4l0,3.6l-26.7,4l0,0.8l48.6,-2l0,5.7l-56.7,0l0,0.1z"/>
   <path id="svg_10" fill="#141414" d="m87.5,0.9l0,-9l56.7,-3.6l0,5.3l-12.6,0.6l0,4.5l12.6,0.6l0,5.3l-56.7,-3.7zm39.3,-6.5l-32.8,1.6l0,0.8l32.8,1.6l0,-4z"/>
   <path id="svg_11" fill="#141414" d="m87.5,-13.3l0,-5.3l56.7,0l0,5.3l-56.7,0z"/>
   <path id="svg_12" fill="#141414" d="m124.8,-26.7c0,0 3.2,0.4 6.5,0.4c8.1,0 9.3,-1.2 9.3,-2s-1.2,-2 -7.7,-2c-13.4,0 -19,9.3 -33.2,9.3c-9.3,0 -13,-3.6 -13,-7.3s3.6,-7.3 13,-7.3c4,0 6.5,0.8 6.5,0.8l0,4.9c0,0 -2.4,-0.4 -5.7,-0.4c-8.1,0 -9.3,1.2 -9.3,2s1.2,2 7.7,2c13.4,0 19,-9.3 33.2,-9.3c9.3,0 13,3.6 13,7.3s-3.6,7.3 -13,7.3c-4,0 -7.3,-0.8 -7.3,-0.8l0,-4.9z"/>
   <path id="svg_13" fill="#141414" d="m115.9,-37.2c-25.5,0 -29.2,-3.6 -29.2,-8.1c0,-4.5 3.6,-8.1 29.2,-8.1c25.5,0 29.2,3.6 29.2,8.1c0,4.4 -3.7,8.1 -29.2,8.1zm0,-10.5c-23.5,0 -24.7,1.2 -24.7,2.4s1.2,2.4 24.7,2.4c23.5,0 24.7,-1.2 24.7,-2.4s-1.2,-2.4 -24.7,-2.4z"/>
   <path id="svg_14" fill="#141414" d="m87.5,-56.3l0,-6.5l48.6,-5.7l0,-0.8l-48.6,2.9l0,-5.6l56.7,0l0,6.5l-48.6,5.7l0,0.7l48.6,-2.8l0,5.7l-56.7,0l0,-0.1z"/>
  </g>
 </g>
</svg>